<?xml version="1.0" encoding="UTF-8"?>
<svg version="1.1" xmlns="http://www.w3.org/2000/svg" width="200" height="200">
<path d="M0 0 C11.80496991 12.58941686 17.98554958 27.93318082 17.71875 45.16259766 C16.94970253 61.77322182 10.61602784 75.53188552 -1.375 87.1875 C-1.98859375 87.82171875 -2.6021875 88.4559375 -3.234375 89.109375 C-15.09491021 100.56442183 -30.40010365 104.02630024 -46.375 104.1875 C-63.3857036 103.13287544 -77.77718457 95.78764168 -89.46484375 83.5 C-100.95939428 69.58430692 -105.36374691 53.771517 -104.15625 35.9609375 C-101.94348219 19.83326443 -93.93108631 5.55899697 -81.375 -4.8125 C-55.90657585 -23.27033399 -23.0281237 -21.91329774 0 0 Z M-87.1875 11.5 C-95.36700459 22.59248853 -98.8953855 36.77477578 -96.91015625 50.37109375 C-93.9100303 66.57887477 -86.10621349 78.8564617 -72.81640625 88.65625 C-60.49934395 96.38151148 -46.77383471 98.68150664 -32.625 96.0625 C-17.6955657 92.59275941 -5.97485512 84.43891203 2.625 71.75 C10.62524638 58.11055557 12.16592988 43.98986283 8.65625 28.78125 C4.71880329 15.0598448 -4.29350469 3.76501386 -16.375 -3.8125 C-41.96477058 -17.0110648 -68.89283873 -10.2643384 -87.1875 11.5 Z " fill="#272727" transform="translate(143.375,56.8125)"/>
<path d="M0 0 C0.69834961 0.27666504 1.39669922 0.55333008 2.11621094 0.83837891 C2.41699219 3.00708008 2.41699219 3.00708008 2.11621094 5.83837891 C0.09667969 8.42553711 0.09667969 8.42553711 -2.69628906 11.13916016 C-3.18460205 11.62039841 -3.67291504 12.10163666 -4.17602539 12.59745789 C-5.73391538 14.12742396 -7.30829492 15.6390678 -8.88378906 17.15087891 C-9.94482125 18.18682568 -11.00473136 19.22392305 -12.06347656 20.26220703 C-14.65737414 22.80106354 -17.26634849 25.32377539 -19.88378906 27.83837891 C-18.35702906 31.49978525 -16.17463985 33.71332137 -13.31347656 36.42822266 C-12.41757813 37.29511719 -11.52167969 38.16201172 -10.59863281 39.05517578 C-8.70327211 40.87101998 -6.80219902 42.6809201 -4.89550781 44.48486328 C-4.0021875 45.35304687 -3.10886719 46.22123047 -2.18847656 47.11572266 C-0.95073486 48.29509399 -0.95073486 48.29509399 0.31201172 49.49829102 C2.40374116 52.21131221 2.52402625 53.49629169 2.11621094 56.83837891 C0.01806641 57.69042969 0.01806641 57.69042969 -2.88378906 57.83837891 C-5.29841299 56.03597823 -7.22580527 54.33788387 -9.31347656 52.20556641 C-9.90806671 51.61671661 -10.50265686 51.02786682 -11.11526489 50.4211731 C-12.36808881 49.17243132 -13.61337045 47.91608349 -14.8515625 46.65283203 C-16.75208345 44.72019783 -18.68245263 42.82162868 -20.61816406 40.92431641 C-21.83103005 39.70748556 -23.04203347 38.48879479 -24.25097656 37.26806641 C-24.83104462 36.70014374 -25.41111267 36.13222107 -26.00875854 35.54708862 C-29.8227491 31.59556856 -29.8227491 31.59556856 -30.08642578 28.32470703 C-28.40368545 24.84581391 -25.97969663 22.32372327 -23.27441406 19.62744141 C-22.71059021 19.0550473 -22.14676636 18.4826532 -21.56585693 17.89291382 C-20.37388222 16.689479 -19.17666591 15.4912162 -17.97460938 14.29785156 C-16.1362869 12.46586813 -14.32624494 10.60880137 -12.51660156 8.74853516 C-11.35416224 7.58155146 -10.19015107 6.41613094 -9.02441406 5.25244141 C-8.48463928 4.69424713 -7.9448645 4.13605286 -7.38873291 3.5609436 C-3.53674458 -0.19821579 -3.53674458 -0.19821579 0 0 Z " fill="#292929" transform="translate(113.8837890625,71.16162109375)"/>
</svg>
