<?xml version="1.0" encoding="UTF-8"?>
<svg version="1.1" xmlns="http://www.w3.org/2000/svg" width="200" height="200">
<path d="M0 0 C1.05570694 -0.0071553 2.11141388 -0.01431061 3.19911194 -0.02168274 C4.36225922 -0.02437164 5.52540649 -0.02706055 6.72380066 -0.02983093 C7.94501114 -0.03640213 9.16622162 -0.04297333 10.42443848 -0.04974365 C13.77993337 -0.06609935 17.13536516 -0.07770597 20.49088502 -0.08594918 C22.58715388 -0.09109901 24.68341832 -0.09717475 26.77968407 -0.10346031 C33.33801943 -0.12251317 39.89634352 -0.13674398 46.45470124 -0.14507228 C54.0259609 -0.15484547 61.59692826 -0.18116638 69.16808492 -0.22157317 C75.01953754 -0.25173062 80.87090635 -0.26654079 86.72243518 -0.26985329 C90.21758307 -0.27220427 93.71241874 -0.28117012 97.20748329 -0.30631447 C101.10754891 -0.33391896 105.00722977 -0.32976515 108.90739441 -0.32279968 C110.06446899 -0.33560974 111.22154358 -0.3484198 112.41368103 -0.36161804 C120.10760053 -0.31141427 120.10760053 -0.31141427 124.14108276 1.73904419 C128.13353439 6.88423101 128.26222121 12.49956091 128.28434753 18.80732727 C128.28945847 19.53837677 128.2945694 20.26942627 128.29983521 21.02262878 C128.3136374 23.4183948 128.31278189 25.81387019 128.31047058 28.20967102 C128.31436203 29.8868368 128.31869762 31.56400161 128.32345581 33.24116516 C128.33089738 36.7479523 128.33064129 40.25463871 128.32536316 43.76142883 C128.31956437 48.24358884 128.3365193 52.72533618 128.35970783 57.20742798 C128.374474 60.6682321 128.37531308 64.12893741 128.3721981 67.58976746 C128.37270964 69.24189574 128.37791575 70.8940298 128.38801003 72.54612732 C128.40041663 74.86002596 128.39355872 77.17312785 128.38200378 79.48701477 C128.38263321 80.80048889 128.38326263 82.11396301 128.38391113 83.46723938 C127.88415604 88.38160987 126.72096136 92.54285349 123.00968933 96.02217102 C118.96439352 98.29764992 115.77603008 98.21861286 111.21842957 98.09858704 C109.79522339 98.06583558 108.37199936 98.03385381 106.94876099 98.00253296 C106.19480482 97.98488451 105.44084866 97.96723606 104.66404533 97.94905281 C99.81615683 97.84990377 94.96722086 97.82572123 90.11851406 97.79145908 C85.86403237 97.75720879 81.61382137 97.69428935 77.36100769 97.56782532 C59.82371655 96.15044273 59.82371655 96.15044273 43.53929138 100.739151 C40.49257895 103.95132291 38.84566798 107.25302357 37.40446472 111.40473938 C36.00968933 115.14717102 36.00968933 115.14717102 33.54264832 117.15327454 C29.92587988 118.57244218 27.71404884 118.22480288 24.00968933 117.14717102 C20.89620043 113.72663193 18.57877849 109.94870259 16.25968933 105.95967102 C15.64609558 104.91424133 15.03250183 103.86881165 14.40031433 102.79170227 C13.00968933 100.14717102 13.00968933 100.14717102 13.00968933 98.14717102 C11.38160339 98.19937805 11.38160339 98.19937805 9.72062683 98.25263977 C8.27532991 98.28079491 6.83001612 98.30809321 5.38468933 98.33467102 C4.67183777 98.35980774 3.95898621 98.38494446 3.22453308 98.4108429 C-1.59210709 98.47712693 -4.84152733 97.85422173 -8.99031067 95.14717102 C-12.06979859 92.14786736 -12.35203437 89.52755978 -12.41911316 85.31082153 C-12.41618256 84.53824509 -12.41325195 83.76566864 -12.41023254 82.96968079 C-12.42293686 81.73727158 -12.42293686 81.73727158 -12.43589783 80.47996521 C-12.45928293 77.76601146 -12.46028965 75.05262412 -12.45906067 72.33857727 C-12.46616125 70.45054904 -12.4738601 68.56252297 -12.48213196 66.67449951 C-12.49558017 62.71765646 -12.49714397 58.76101295 -12.49128723 54.80415344 C-12.48539027 49.73520494 -12.51598083 44.66721394 -12.55640411 39.59845066 C-12.58226192 35.69933927 -12.58516029 31.80045904 -12.58151245 27.90127373 C-12.58320545 26.03256257 -12.59286523 24.16384093 -12.61065674 22.2952137 C-12.63280955 19.6808437 -12.62316451 17.0684195 -12.60554504 14.45405579 C-12.61880829 13.68350357 -12.63207153 12.91295135 -12.64573669 12.11904907 C-12.58275778 8.09439633 -12.15625525 6.35046698 -9.57685852 3.19049072 C-6.04553429 0.40081708 -4.41983458 0.02051202 0 0 Z M-5.99031067 9.14717102 C-6.28628342 11.74190582 -6.40028569 14.09690751 -6.37849426 16.6920929 C-6.38375122 17.45824417 -6.38900818 18.22439545 -6.39442444 19.01376343 C-6.40763567 21.54802293 -6.39888266 24.08165506 -6.38874817 26.61592102 C-6.39076859 28.37564718 -6.39367976 30.13537253 -6.39744568 31.89509583 C-6.40187054 35.5838569 -6.39543281 39.2724001 -6.38142395 42.96113586 C-6.3643319 47.69268383 -6.37417222 52.42372132 -6.39214134 57.15525055 C-6.40297483 60.78919836 -6.39953486 64.42302488 -6.39175797 68.05697632 C-6.38975475 69.80171773 -6.39221948 71.54647012 -6.39919662 73.29119873 C-6.40680406 75.72851287 -6.3952175 78.16499693 -6.37849426 80.60224915 C-6.38456696 81.32545853 -6.39063965 82.04866791 -6.39689636 82.79379272 C-6.36040443 85.66029925 -6.30761913 87.67148058 -4.69212341 90.09333801 C-1.7755264 91.89941581 1.54833555 91.60509088 4.88468933 91.64717102 C14.09336285 91.7645858 14.09336285 91.7645858 18.00968933 95.14717102 C19.84387228 97.76168619 21.33925554 100.50944774 22.82218933 103.33467102 C23.43223816 104.45905579 23.43223816 104.45905579 24.05461121 105.6061554 C25.0512142 107.44693974 26.03204432 109.29624834 27.00968933 111.14717102 C28.32968933 111.14717102 29.64968933 111.14717102 31.00968933 111.14717102 C32.51130352 109.6128489 32.51130352 109.6128489 33.66593933 107.49873352 C34.13129089 106.74076477 34.59664246 105.98279602 35.07609558 105.20185852 C35.54918152 104.40006165 36.02226746 103.59826477 36.50968933 102.77217102 C37.44850177 101.19639865 38.39611816 99.62583044 39.35343933 98.06123352 C39.76787292 97.35950012 40.18230652 96.65776672 40.60929871 95.93476868 C42.32034751 93.75061607 43.41168841 93.14466254 46.00968933 92.14717102 C49.24861145 91.8888855 49.24861145 91.8888855 53.13322449 91.87593079 C53.84260666 91.87070404 54.55198883 91.86547729 55.28286743 91.86009216 C56.81881632 91.84987167 58.35479965 91.84407516 59.8907814 91.84221077 C62.31977266 91.83854555 64.74835623 91.82181744 67.17726135 91.80145264 C74.08128809 91.746038 80.98537346 91.71528171 87.88957214 91.69087219 C92.11533027 91.67503208 96.3407956 91.64485759 100.56640244 91.60610771 C102.17796608 91.59443284 103.78958197 91.58852715 105.4011879 91.58842659 C107.64941942 91.58823536 109.89683754 91.57003298 112.14494324 91.54780579 C113.42527435 91.54273514 114.70560547 91.53766449 116.0247345 91.53244019 C117.00976959 91.40530136 117.99480469 91.27816254 119.00968933 91.14717102 C121.43764474 87.50523791 121.29876755 84.81175156 121.28434753 80.60224915 C121.29201393 79.45302223 121.29201393 79.45302223 121.29983521 78.28057861 C121.31374273 75.74644677 121.31277378 73.2125865 121.31047058 70.67842102 C121.31435649 68.91869505 121.31869095 67.15897002 121.32345581 65.39924622 C121.33092023 61.71053527 121.33062487 58.02192004 121.32536316 54.33320618 C121.3195641 49.60168277 121.33650886 44.87055024 121.35970783 40.13909149 C121.37442419 36.50515953 121.37531982 32.8713222 121.3721981 29.23736572 C121.37271224 27.49261703 121.37796722 25.74786317 121.38801003 24.00314331 C121.40031857 21.56586628 121.3936172 19.12935722 121.38200378 16.6920929 C121.38964752 15.96888351 121.39729126 15.24567413 121.40516663 14.50054932 C121.40210233 10.74796708 121.40210233 10.74796708 119.79468822 7.46224785 C117.4368697 5.72515293 115.99130299 5.769944 113.07548523 5.76622009 C112.05758408 5.75776062 111.03968292 5.74930115 109.99093628 5.74058533 C108.87499588 5.74665802 107.75905548 5.75273071 106.60929871 5.75898743 C105.43349747 5.75373047 104.25769623 5.74847351 103.04626465 5.74305725 C99.82101244 5.73210599 96.59612879 5.7346867 93.37088203 5.74419451 C89.99701787 5.75178531 86.62317848 5.74474711 83.24931335 5.74003601 C77.58329339 5.73457675 71.91739071 5.74177446 66.25138855 5.75605774 C59.69898057 5.77238469 53.14685262 5.7670963 46.59445143 5.75057852 C40.97058701 5.73696843 35.34680694 5.73504162 29.72293139 5.74289453 C26.36320435 5.74757372 23.00360898 5.74818929 19.64389038 5.73828506 C15.89909247 5.73069252 12.15483729 5.74224477 8.41007996 5.75898743 C7.29413956 5.75291473 6.17819916 5.74684204 5.02844238 5.74058533 C4.01054123 5.7490448 2.99264008 5.75750427 1.94389343 5.76622009 C1.05825966 5.76735117 0.17262589 5.76848225 -0.73984528 5.7696476 C-3.48454014 6.23007974 -4.37417531 6.90674371 -5.99031067 9.14717102 Z " fill="#000000" transform="translate(27.990310668945313,53.85282897949219)"/>
<path d="M0 0 C1.01356567 -0.00571014 2.02713135 -0.01142029 3.07141113 -0.01730347 C4.1826384 -0.01842133 5.29386566 -0.01953918 6.43876648 -0.02069092 C7.60974884 -0.02565582 8.7807312 -0.03062073 9.98719788 -0.03573608 C13.20013644 -0.04784427 16.41303862 -0.05530283 19.62599587 -0.05974674 C21.63433567 -0.06267956 23.64266977 -0.06678478 25.6510067 -0.07125092 C31.93757072 -0.08492323 38.22412172 -0.09459099 44.51069957 -0.09845281 C51.76210654 -0.10293204 59.01332487 -0.12047464 66.26467448 -0.1494534 C71.87327881 -0.17108737 77.48183014 -0.18115801 83.09047574 -0.18249393 C86.4386267 -0.18354081 89.7864594 -0.19087329 93.13459206 -0.20731354 C96.87154585 -0.2243533 100.60803968 -0.2224985 104.34501648 -0.21600342 C105.45017105 -0.2252182 106.55532562 -0.23443298 107.69396973 -0.243927 C114.25839555 -0.20815656 118.88798431 0.23376695 123.9367218 4.82258606 C125.62292784 8.22336351 125.50370965 11.51315136 125.47416687 15.22613525 C125.48205231 16.44391411 125.48205231 16.44391411 125.49009705 17.68629456 C125.50329188 20.36782112 125.49456009 23.04875312 125.48442078 25.73028564 C125.48644186 27.59589247 125.48935358 29.46149853 125.49311829 31.32710266 C125.4975411 35.23688276 125.49111267 39.14645719 125.47709656 43.05621338 C125.46001656 48.06441365 125.4698386 53.07213118 125.48781395 58.08031368 C125.49866304 61.9330864 125.49520007 65.78574501 125.48743057 69.63852119 C125.48543106 71.48487976 125.48787909 73.33124872 125.49486923 75.17759514 C125.5025009 77.76045983 125.4908552 80.3425471 125.47416687 82.925354 C125.48023956 83.68655548 125.48631226 84.44775696 125.49256897 85.23202515 C125.43905347 89.71015757 124.83206 92.56863417 122.08598328 96.14044189 C118.9184348 98.40104273 116.15465601 98.35636267 112.33598328 98.26544189 C111.35113953 98.24739502 110.36629578 98.22934814 109.35160828 98.21075439 C108.60395203 98.18755127 107.85629578 98.16434814 107.08598328 98.14044189 C106.70379561 96.48429532 106.37203226 94.81587165 106.08598328 93.14044189 C107.99021793 91.23620724 111.37071441 91.71446699 113.95707703 91.51934814 C116.29525731 91.31267554 116.29525731 91.31267554 118.08598328 89.14044189 C118.27387639 86.55020623 118.33783482 84.06827079 118.31303406 81.47784424 C118.31339566 80.27315207 118.31339566 80.27315207 118.31376457 79.0441227 C118.31226887 76.43809652 118.29702455 73.83235456 118.28129578 71.22637939 C118.27835613 69.62001686 118.27631521 68.01365243 118.27519226 66.4072876 C118.2646958 60.44330986 118.2367735 54.4793731 118.21098328 48.51544189 C118.16973328 35.19169189 118.12848328 21.86794189 118.08598328 8.14044189 C77.16598328 8.14044189 36.24598328 8.14044189 -5.91401672 8.14044189 C-6.57401672 11.11044189 -7.23401672 14.08044189 -7.91401672 17.14044189 C-8.57401672 17.80044189 -9.23401672 18.46044189 -9.91401672 19.14044189 C-12.03901672 18.76544189 -12.03901672 18.76544189 -13.91401672 18.14044189 C-15.18904974 12.46074936 -14.7566758 9.23762369 -11.91401672 4.14044189 C-8.2568477 0.71184594 -4.9037065 0.01654333 0 0 Z " fill="#000000" transform="translate(58.91401672363281,27.85955810546875)"/>
<path d="M0 0 C0.79701828 -0.00175232 1.59403656 -0.00350464 2.41520691 -0.00531006 C5.05148491 -0.00971384 7.68769592 -0.00679603 10.32397461 -0.00341797 C12.15335605 -0.00409136 13.9827374 -0.00506169 15.81211853 -0.00631714 C19.64623873 -0.00779206 23.48033563 -0.0056459 27.31445312 -0.00097656 C32.23651257 0.00472463 37.15851754 0.00143795 42.08057499 -0.00454903 C45.85770582 -0.00815675 49.63482366 -0.00701515 53.41195488 -0.00442123 C55.22729944 -0.00375276 57.04264516 -0.00457763 58.85798836 -0.00690079 C61.3910346 -0.00943118 63.92399167 -0.0055814 66.45703125 0 C67.21188812 -0.00202423 67.966745 -0.00404846 68.74447632 -0.00613403 C73.93528801 0.01512936 73.93528801 0.01512936 76.16381836 1.12939453 C76.20653936 2.79551358 76.20445668 4.46322338 76.16381836 6.12939453 C74.38911589 7.90409701 72.01991883 7.25560314 69.65629578 7.2649231 C68.86664932 7.26289886 68.07700287 7.26087463 67.26342773 7.25878906 C66.4358345 7.26054138 65.60824127 7.2622937 64.75556946 7.26409912 C62.00621474 7.26851846 59.25692379 7.26557936 56.50756836 7.26220703 C54.60567207 7.26288005 52.70377587 7.26385005 50.80187988 7.2651062 C46.81037581 7.26658329 42.81889406 7.26442828 38.82739258 7.25976562 C33.69891329 7.25406833 28.57048633 7.25734728 23.44200897 7.26333809 C19.51307782 7.26694342 15.58415918 7.26580525 11.65522766 7.2632103 C9.76369724 7.26254095 7.87216571 7.26336972 5.9806366 7.26568985 C3.34179659 7.26821591 0.70304255 7.26437644 -1.93579102 7.25878906 C-3.1202607 7.26182541 -3.1202607 7.26182541 -4.32865906 7.2649231 C-9.72191913 7.24365705 -9.72191913 7.24365705 -10.83618164 6.12939453 C-10.87681996 4.46322338 -10.87890264 2.79551358 -10.83618164 1.12939453 C-7.17529147 -0.09090219 -3.81112202 -0.01024742 0 0 Z " fill="#000000" transform="translate(52.836181640625,98.87060546875)"/>
<path d="M0 0 C0.78964645 0.00202423 1.57929291 0.00404846 2.39286804 0.00613403 C3.63425789 0.00350555 3.63425789 0.00350555 4.90072632 0.00082397 C7.65008104 -0.00359537 10.39937199 -0.00065627 13.14872742 0.00271606 C15.0506237 0.00204305 16.9525199 0.00107304 18.85441589 -0.00018311 C22.84591997 -0.00166019 26.83740171 0.00049482 30.8289032 0.00515747 C35.95738248 0.01085476 41.08580944 0.00757582 46.2142868 0.00158501 C50.14321795 -0.00202032 54.0721366 -0.00088215 58.00106812 0.0017128 C59.89259853 0.00238215 61.78413007 0.00155338 63.67565918 -0.00076675 C66.31449918 -0.00329282 68.95325323 0.00054665 71.59208679 0.00613403 C72.77655647 0.00309769 72.77655647 0.00309769 73.98495483 0 C79.3782149 0.02126605 79.3782149 0.02126605 80.49247742 1.13552856 C80.49247742 2.78552856 80.49247742 4.43552856 80.49247742 6.13552856 C52.11247742 6.13552856 23.73247742 6.13552856 -5.50752258 6.13552856 C-5.83752258 4.48552856 -6.16752258 2.83552856 -6.50752258 1.13552856 C-4.73282011 -0.63917391 -2.36362305 0.00931995 0 0 Z " fill="#000000" transform="translate(48.50752258300781,76.86447143554688)"/>
<path d="M0 0 C1.18682625 0.00539291 1.18682625 0.00539291 2.39762878 0.01089478 C3.22682831 0.01074875 4.05602783 0.01060272 4.91035461 0.01045227 C7.664521 0.01115166 10.41862063 0.01894523 13.17277527 0.02676392 C15.07706668 0.028628 16.98135857 0.03005195 18.88565063 0.03105164 C23.90804865 0.03487754 28.93041794 0.04470843 33.95280457 0.05575562 C39.07365022 0.06596819 44.1945005 0.07054892 49.31535339 0.07559204 C59.37070459 0.08633064 69.42603442 0.10340792 79.48136902 0.12442017 C79.86355669 1.78056674 80.19532004 3.44899041 80.48136902 5.12442017 C78.70415211 6.90163707 76.32889701 6.24430115 73.96273804 6.24884033 C72.77591179 6.24344742 72.77591179 6.24344742 71.56510925 6.23794556 C70.73590973 6.23809158 69.90671021 6.23823761 69.05238342 6.23838806 C66.29821704 6.23768868 63.54411741 6.2298951 60.78996277 6.22207642 C58.88567136 6.22021233 56.98137947 6.21878838 55.0770874 6.2177887 C50.05468939 6.21396279 45.0323201 6.2041319 40.00993347 6.19308472 C34.88908782 6.18287215 29.76823754 6.17829141 24.64738464 6.17324829 C14.59203345 6.16250969 4.53670362 6.14543241 -5.51863098 6.12442017 C-5.90081865 4.46827359 -6.232582 2.79984992 -6.51863098 1.12442017 C-4.74141408 -0.65279674 -2.36615898 0.00453918 0 0 Z " fill="#000000" transform="translate(48.51863098144531,121.87557983398438)"/>
</svg>
