<?xml version="1.0" encoding="UTF-8"?>
<svg version="1.1" xmlns="http://www.w3.org/2000/svg" width="512" height="512">
<path d="M0 0 C5.751552 4.76153076 10.71035101 11.01523224 12.6875 18.3125 C13.03538871 22.30121779 12.97182993 26.2501792 12.875 30.25 C12.86146484 31.31541016 12.84792969 32.38082031 12.83398438 33.47851562 C12.79884724 36.09037588 12.74965184 38.70116634 12.6875 41.3125 C13.69039062 41.4259375 14.69328125 41.539375 15.7265625 41.65625 C19.68174837 42.22779718 23.33632083 43.39266724 27.0625 44.8125 C27.74658936 45.07313232 28.43067871 45.33376465 29.13549805 45.60229492 C41.9842458 50.66445346 53.40014538 57.03275357 63.6875 66.3125 C64.92693359 67.33923828 64.92693359 67.33923828 66.19140625 68.38671875 C88.09158273 86.92818272 101.64467934 115.40404909 106.6875 143.3125 C106.86963043 144.21696365 107.05176086 145.12142731 107.2394104 146.05329895 C109.2519443 157.93541889 108.40585938 169.5927804 107.80041504 181.57900429 C107.46344321 188.96865269 107.29486346 196.36439137 107.1176033 203.75935614 C106.93109048 211.51273465 106.67931126 219.24808243 106.20166016 226.98950195 C105.70636195 235.19737443 105.41922252 243.38968962 105.4375 251.61328125 C105.43882431 252.28227149 105.44014862 252.95126172 105.44151306 253.64052439 C105.59854616 272.75744261 109.85512682 285.68661667 123.47463036 299.1648522 C127.73307694 303.25269952 132.2339581 306.98293833 136.89941406 310.59992981 C137.85638687 311.36614214 138.81335968 312.13235447 139.79933167 312.92178535 C142.54191909 315.13049384 142.54191909 315.13049384 145.3611908 316.92864799 C147.87963867 318.85661316 147.87963867 318.85661316 151.6875 324.3125 C151.6875 331.9025 151.6875 339.4925 151.6875 347.3125 C38.8275 347.3125 -74.0325 347.3125 -190.3125 347.3125 C-190.3125 324.3125 -190.3125 324.3125 -186.50364685 318.84371948 C-183.98459435 316.90790939 -183.98459435 316.90790939 -181.22827148 315.08935547 C-179.31758454 313.58968753 -177.41553002 312.07897046 -175.52125549 310.55862427 C-174.53213228 309.79018314 -173.54300907 309.02174202 -172.52391243 308.2300148 C-158.92091348 297.33381255 -147.14912395 285.74282981 -144.80126953 267.72753906 C-143.48143973 253.74133008 -144.12610699 239.63199085 -145.01162565 225.6361959 C-145.4864835 218.00999331 -145.68520244 210.37978581 -145.88085938 202.7421875 C-146.08532756 194.90840379 -146.30850325 187.08039864 -146.72755432 179.25442505 C-147.61741384 161.94161067 -146.69481719 145.58322053 -141.75 128.875 C-141.50096924 128.02357422 -141.25193848 127.17214844 -140.99536133 126.29492188 C-131.11499827 94.30750279 -109.99232712 67.19265674 -80.43505859 51.30322266 C-60.97098102 41.3125 -60.97098102 41.3125 -51.3125 41.3125 C-51.33344727 40.69842285 -51.35439453 40.0843457 -51.37597656 39.45166016 C-51.46018034 36.61377983 -51.51148423 33.77616348 -51.5625 30.9375 C-51.59601563 29.97199219 -51.62953125 29.00648437 -51.6640625 28.01171875 C-51.79370098 18.35365164 -49.19136378 10.26873343 -42.5078125 3.13671875 C-30.44950987 -6.8832587 -13.21290723 -9.27177238 0 0 Z " fill="#000000" transform="translate(275.3125,58.6875)"/>
<path d="M0 0 C28.38 0 56.76 0 86 0 C86 12.16484935 82.74507746 21.47856072 74.6875 30.625 C64.38324799 39.73108317 54.24638741 44.4445195 40.3203125 44.2734375 C27.90209966 43.25076115 18.23318557 37.61328067 9.6875 28.8125 C2.5657395 20.40766929 0 10.79252196 0 0 Z " fill="#000000" transform="translate(213,426)"/>
</svg>
